<svg xmlns="http://www.w3.org/2000/svg" width="1400" height="420" viewBox="0 0 1400 420" role="img" aria-labelledby="title desc">
  <title id="title">mdedit.io logo lockup</title>
  <desc id="desc">The mdedit.io logo lockup with the blue icon and the mdedit.io wordmark.</desc>
  <rect x="0" y="0" width="1400" height="420" fill="#ffffff"/>

  <!-- back panel -->
  <rect x="207" y="74" width="62" height="118" rx="13" fill="#B7D9F7"/>
  <rect x="203" y="196" width="62" height="58" rx="13" fill="#B7D9F7"/>

  <!-- front document outline -->
  <path d="M81 82
           L190 82
           Q204 82 204 96
           L204 162
           Q204 172 214 172
           L247 172
           Q257 172 257 182
           Q257 187 253 190
           L214 229
           Q209 234 201 234
           L195 234
           Q185 234 185 224
           L185 197
           Q185 187 175 187
           L145 187
           Q131 187 131 173
           L131 112
           Q131 103 125 97
           Q119 90 111 90
           Q81 90 81 117
           L81 238
           Q81 253 94 257
           Q108 260 123 257
           L205 240
           Q219 237 219 224
           L219 207
           Q219 197 229 197
           L258 197
           Q273 197 273 182
           Q273 176 270 172
           L225 122
           Q216 112 216 102
           L216 95
           Q216 82 203 82
           Z"
        fill="none" stroke="#0089CF" stroke-width="12" stroke-linecap="round" stroke-linejoin="round"/>

  <!-- MD text -->
  <text x="114" y="136" font-family="Arial, Helvetica, sans-serif" font-size="46" font-weight="800" fill="#000000">MD</text>

  <!-- text lines -->
  <line x1="111" y1="166" x2="191" y2="166" stroke="#0089CF" stroke-width="10" stroke-linecap="round"/>
  <line x1="111" y1="194" x2="180" y2="194" stroke="#0089CF" stroke-width="10" stroke-linecap="round"/>

  <!-- arrow -->
  <path d="M211 169 H289" fill="none" stroke="#0089CF" stroke-width="12" stroke-linecap="round"/>
  <path d="M257 137 L289 169 L257 201" fill="none" stroke="#0089CF" stroke-width="12" stroke-linecap="round" stroke-linejoin="round"/>

  <!-- wordmark -->
  <text x="360" y="205" font-family="Arial, Helvetica, sans-serif" font-size="132" font-weight="700" fill="#000000" letter-spacing="-4">mdedit</text>
  <text x="885" y="205" font-family="Arial, Helvetica, sans-serif" font-size="132" font-weight="700" fill="#0089CF" letter-spacing="-4">.io</text>
</svg>
